# xmcd CD database file generated by OrangeCD 5.2
#
# Track frame offsets:
#	150
#	26036
#	48033
#	70389
#
# Disc length: 1419 seconds
#
# Revision: 2
# Processed by: cddbd v1.5PL3 Copyright (c) Steve Scherf et al.
# Submitted via: OrangeCD 5.2
#
DISCID=2e058904
DTITLE=dEUS - Humo promo
DYEAR=1999
DGENRE=Rock
TTITLE0=One Advice, Space
TTITLE1=You Can't Deny What You Liked As A Child
TTITLE2=Magdalena (Live)
TTITLE3=Gimme The Heat (Live)
EXTD=
EXTT0=
EXTT1=
EXTT2=
EXTT3=
PLAYORDER=
